<?xml version="1.0" encoding="iso-8859-1"?>
<!-- Generator: Adobe Illustrator 19.0.0, SVG Export Plug-In . SVG Version: 6.00 Build 0)  -->
<svg version="1.1" id="Capa_1" xmlns="http://www.w3.org/2000/svg" xmlns:xlink="http://www.w3.org/1999/xlink" x="0px" y="0px"
	 viewBox="0 0 511.733 511.733" style="enable-background:new 0 0 511.733 511.733;" xml:space="preserve">
<path style="fill:#FFD15C;" d="M485.2,315.467L309.2,29.6c-24.533-39.467-82.133-39.467-106.667,0l-176,285.867
	c-25.6,41.6,4.267,96,53.333,96h352C480.933,411.467,510.8,358.133,485.2,315.467z"/>
<path style="fill:#F8B64C;" d="M79.867,379.467c-16,0-24.533-10.667-26.667-16c-2.133-5.333-7.467-17.067,1.067-30.933L229.2,46.667
	c8.533-13.867,21.333-14.933,26.667-14.933c5.333,0,18.133,1.067,26.667,14.933l176,285.867c8.533,13.867,3.2,26.667,1.067,30.933
	c-2.133,4.267-10.667,16-26.667,16H79.867z"/>
<polygon style="fill:#FFD15C;" points="82,347.467 255.867,64.8 429.733,347.467 "/>
<rect x="208.933" y="411.467" style="fill:#CDD6E0;" width="93.867" height="100.267"/>
<rect x="208.933" y="411.467" style="fill:#BACCDB;" width="93.867" height="16"/>
<g>
	<path style="fill:#40596B;" d="M255.867,274.933L255.867,274.933c-4.267,0-8.533-3.2-9.6-7.467l-16-99.2
		c-2.133-14.933,9.6-29.867,25.6-29.867l0,0c16,0,27.733,13.867,25.6,29.867l-16,99.2
		C264.4,271.733,260.133,274.933,255.867,274.933z"/>
	<circle style="fill:#40596B;" cx="255.867" cy="303.733" r="21.333"/>
</g>
<g>
</g>
<g>
</g>
<g>
</g>
<g>
</g>
<g>
</g>
<g>
</g>
<g>
</g>
<g>
</g>
<g>
</g>
<g>
</g>
<g>
</g>
<g>
</g>
<g>
</g>
<g>
</g>
<g>
</g>
</svg>
