<?xml version="1.0" encoding="iso-8859-1"?>
<!-- Generator: Adobe Illustrator 18.0.0, SVG Export Plug-In . SVG Version: 6.00 Build 0)  -->
<!DOCTYPE svg PUBLIC "-//W3C//DTD SVG 1.1//EN" "http://www.w3.org/Graphics/SVG/1.1/DTD/svg11.dtd">
<svg version="1.1" id="Capa_1" xmlns="http://www.w3.org/2000/svg" xmlns:xlink="http://www.w3.org/1999/xlink" x="0px" y="0px"
	 viewBox="0 0 297.702 297.702" style="enable-background:new 0 0 297.702 297.702;" xml:space="preserve">
<g>
	<g>
		<g>
			<path style="fill:#FDBD1D;" d="M53.006,145.366H18.601c-1.007,0-1.695-0.277-1.695,0.996v3.119c0,1.273,0.687,0.884,1.695,0.884
				h34.406c-0.031-2-0.053-1.205-0.053-2.501C52.953,146.572,52.975,145.366,53.006,145.366z"/>
			<path style="fill:none;" d="M153.746,167.918v50.952c15.764-1.092,30.111-7.411,41.317-17.233l-36.054-35.932
				C157.391,166.684,155.622,167.436,153.746,167.918z"/>
			<path style="fill:none;" d="M158.862,131.914l36.015-36.014c-11.178-9.73-25.455-15.984-41.131-17.069v50.953
				C155.567,130.253,157.284,130.978,158.862,131.914z"/>
			<path style="fill:none;" d="M102.818,201.797c11.18,9.733,25.461,15.989,41.143,17.073v-50.95
				c-1.826-0.468-3.549-1.196-5.131-2.135L102.818,201.797z"/>
			<path style="fill:none;" d="M131.913,158.864c-0.938-1.579-1.664-3.298-2.131-5.121H78.835
				c1.084,15.677,7.336,29.955,17.065,41.134L131.913,158.864z"/>
			<path style="fill:none;" d="M143.961,129.784V78.832c-15.679,1.084-29.957,7.337-41.135,17.068l36.091,35.968
				C140.476,130.953,142.167,130.244,143.961,129.784z"/>
			<path style="fill:none;" d="M129.782,143.959c0.476-1.855,1.218-3.604,2.18-5.206l-36.056-35.934
				c-9.732,11.18-15.988,25.46-17.072,41.141H129.782z"/>
			<path style="fill:none;" d="M218.869,153.743h-50.948c-0.455,1.77-1.153,3.442-2.053,4.984l36.091,35.968
				C211.598,183.544,217.789,169.337,218.869,153.743z"/>
			<path style="fill:none;" d="M165.785,138.83c0.939,1.582,1.667,3.304,2.136,5.129h50.948
				c-1.085-15.681-7.34-29.961-17.073-41.139L165.785,138.83z"/>
			<path style="fill:#FDBD1D;" d="M53.972,49.644l6.989,6.989c-0.466-0.466-1.009-0.535-1.291-0.535
				c-0.283,0-0.826,0.07-1.293,0.535l-1.744,1.744c-0.466,0.467-0.535,1.01-0.535,1.293c0,0.282,0.069,0.822,0.53,1.286
				l22.319,22.32c1.398-1.489,2.842-2.932,4.33-4.33L53.972,49.644z"/>
			<path style="fill:#FDBD1D;" d="M78.947,214.427l-29.303,29.303l6.989-6.989c-0.713,0.713-0.713,1.871,0,2.584l1.744,1.745
				c0.467,0.466,1.01,0.536,1.293,0.536c0.282,0,0.826-0.07,1.293-0.536l22.314-22.313
				C81.787,217.359,80.344,215.914,78.947,214.427z"/>
			<path style="fill:#FDBD1D;" d="M150.085,15.366h-2.468c-1.007,0-0.711,2.228-0.711,3.237v34.406c0-0.031,1.475-0.053,2.499-0.053
				c1.025,0-0.499,0.022,2.501,0.053V18.603C151.906,17.595,151.092,15.366,150.085,15.366z"/>
			<g>
				<path style="fill:#FDBD1D;" d="M150.085,287.917c1.007,0,1.826-0.819,1.826-1.826v-0.001
					C151.911,287.096,151.092,287.917,150.085,287.917z"/>
				<path style="fill:#FDBD1D;" d="M145.79,286.089v0.001c0,1.007,0.819,1.826,1.826,1.826h0.001
					C146.61,287.917,145.79,287.096,145.79,286.089z"/>
				<path style="fill:#FDBD1D;" d="M149.405,244.747c-1.024,0-2.499-0.021-2.499-0.054V279.1c0,1.007-0.296,1.266,0.712,1.266h2.467
					c1.007,0,1.821-0.259,1.821-1.266v-34.407C148.906,244.726,150.43,244.747,149.405,244.747z"/>
			</g>
			<g>
				<path style="fill:#FDBD1D;" d="M168.678,65.07c0.84,0.199,1.679,0.402,2.509,0.625C170.357,65.472,169.519,65.269,168.678,65.07
					z"/>
				<path style="fill:#FDBD1D;" d="M164.272,64.151c0.866,0.157,1.732,0.316,2.589,0.499
					C166.004,64.467,165.138,64.308,164.272,64.151z"/>
				<path style="fill:#FDBD1D;" d="M172.98,66.206c0.823,0.241,1.644,0.489,2.457,0.754
					C174.623,66.695,173.803,66.446,172.98,66.206z"/>
				<path style="fill:#FDBD1D;" d="M177.177,67.55c0.814,0.285,1.623,0.58,2.426,0.888C178.8,68.13,177.992,67.835,177.177,67.55z"
					/>
				<path style="fill:#FDBD1D;" d="M67.545,177.173c0.286,0.818,0.582,1.629,0.892,2.436
					C68.128,178.802,67.831,177.99,67.545,177.173z"/>
				<path style="fill:#FDBD1D;" d="M62.738,148.851c0,1.541,0.045,3.073,0.125,4.595C62.783,151.924,62.738,150.392,62.738,148.851z
					"/>
				<path style="fill:#FDBD1D;" d="M66.202,172.976c0.242,0.826,0.491,1.648,0.756,2.463
					C66.692,174.624,66.443,173.801,66.202,172.976z"/>
				<path style="fill:#FDBD1D;" d="M154.949,62.98c1.015,0.071,2.03,0.143,3.036,0.249C156.979,63.123,155.964,63.052,154.949,62.98
					z"/>
				<path style="fill:#FDBD1D;" d="M159.726,63.452c0.913,0.116,1.826,0.23,2.73,0.374
					C161.552,63.681,160.639,63.567,159.726,63.452z"/>
				<path style="fill:#FDBD1D;" d="M148.849,62.74c1.542,0,3.073,0.045,4.595,0.125C151.922,62.785,150.391,62.74,148.849,62.74z"/>
				<path style="fill:#FDBD1D;" d="M196.555,77.204c0.978,0.654,1.936,1.333,2.885,2.025
					C198.491,78.537,197.533,77.858,196.555,77.204z"/>
				<path style="fill:#FDBD1D;" d="M209.982,88.271c-3.078-3.105-6.389-5.979-9.906-8.59
					C203.592,82.293,206.904,85.166,209.982,88.271z"/>
				<path style="fill:#FDBD1D;" d="M210.514,88.83c0.822,0.845,1.633,1.7,2.421,2.578C212.148,90.53,211.337,89.675,210.514,88.83z"
					/>
				<path style="fill:#FDBD1D;" d="M189.143,72.779c0.831,0.442,1.649,0.905,2.464,1.373
					C190.791,73.684,189.974,73.221,189.143,72.779z"/>
				<path style="fill:#FDBD1D;" d="M185.26,70.841c0.816,0.383,1.622,0.783,2.424,1.19C186.882,71.624,186.077,71.224,185.26,70.841
					z"/>
				<path style="fill:#FDBD1D;" d="M181.271,69.097c0.812,0.332,1.617,0.677,2.416,1.032
					C182.887,69.774,182.083,69.428,181.271,69.097z"/>
				<path style="fill:#FDBD1D;" d="M192.909,74.902c0.872,0.522,1.728,1.067,2.579,1.618
					C194.637,75.969,193.781,75.423,192.909,74.902z"/>
				<path style="fill:#FDBD1D;" d="M70.13,183.696c-0.358-0.805-0.706-1.615-1.039-2.432
					C69.425,182.081,69.773,182.891,70.13,183.696z"/>
				<path style="fill:#FDBD1D;" d="M69.232,156.257c-0.072-0.782-0.13-1.568-0.18-2.357
					C69.102,154.689,69.159,155.475,69.232,156.257z"/>
				<path style="fill:#FDBD1D;" d="M68.971,152.59c-0.057-1.24-0.095-2.485-0.095-3.739C68.876,150.105,68.913,151.35,68.971,152.59
					z"/>
				<path style="fill:#FDBD1D;" d="M69.656,159.889c-0.094-0.679-0.184-1.361-0.261-2.045
					C69.473,158.529,69.562,159.21,69.656,159.889z"/>
				<path style="fill:#FDBD1D;" d="M213.055,91.546c-13.807-12.3-31.585-20.23-51.146-21.599c-0.104-0.017-0.209-0.029-0.314-0.046
					c38.061,6.124,67.231,39.189,67.231,78.95c0,44.099-35.878,79.977-79.977,79.977c-39.777,0-72.853-29.196-78.955-67.282
					c0.017,0.107,0.029,0.215,0.047,0.322c1.361,19.58,9.295,37.374,21.607,51.19c15.234,13.61,35.313,21.904,57.301,21.904
					c47.484,0,86.115-38.629,86.115-86.112C234.964,126.861,226.668,106.78,213.055,91.546z"/>
				<path style="fill:#FDBD1D;" d="M91.431,212.957c-0.93-0.834-1.837-1.691-2.729-2.564
					C89.594,211.266,90.501,212.123,91.431,212.957z"/>
				<path style="fill:#FDBD1D;" d="M159.845,69.648c-0.65-0.09-1.301-0.175-1.956-0.249
					C158.544,69.473,159.195,69.558,159.845,69.648z"/>
				<path style="fill:#FDBD1D;" d="M156.247,69.229c-0.769-0.071-1.541-0.127-2.316-0.177
					C154.706,69.101,155.479,69.158,156.247,69.229z"/>
				<path style="fill:#FDBD1D;" d="M152.592,68.969c-1.24-0.058-2.485-0.095-3.739-0.095
					C150.107,68.874,151.353,68.911,152.592,68.969z"/>
				<path style="fill:#FDBD1D;" d="M62.978,154.95c0.071,1.015,0.142,2.029,0.249,3.034C63.12,156.979,63.049,155.965,62.978,154.95
					z"/>
				<path style="fill:#FDBD1D;" d="M65.067,168.676c0.199,0.842,0.403,1.681,0.627,2.514
					C65.469,170.358,65.266,169.517,65.067,168.676z"/>
				<path style="fill:#FDBD1D;" d="M79.668,200.06c2.62,3.53,5.503,6.852,8.62,9.939C85.171,206.912,82.288,203.589,79.668,200.06z"
					/>
				<path style="fill:#FDBD1D;" d="M63.449,159.729c0.116,0.912,0.23,1.825,0.374,2.728
					C63.679,161.554,63.565,160.641,63.449,159.729z"/>
				<path style="fill:#FDBD1D;" d="M64.147,164.269c0.157,0.867,0.316,1.734,0.5,2.592
					C64.464,166.003,64.305,165.136,64.147,164.269z"/>
				<path style="fill:#FDBD1D;" d="M79.285,199.522c-0.716-0.98-1.418-1.971-2.093-2.982
					C77.868,197.552,78.569,198.542,79.285,199.522z"/>
				<path style="fill:#FDBD1D;" d="M76.548,195.535c-0.565-0.872-1.123-1.749-1.657-2.642
					C75.424,193.787,75.983,194.663,76.548,195.535z"/>
				<path style="fill:#FDBD1D;" d="M72.037,187.7c-0.411-0.81-0.815-1.624-1.201-2.448C71.221,186.077,71.625,186.89,72.037,187.7z"
					/>
				<path style="fill:#FDBD1D;" d="M74.168,191.639c-0.477-0.829-0.948-1.663-1.398-2.509
					C73.22,189.977,73.691,190.81,74.168,191.639z"/>
			</g>
			<path style="fill:#B74B00;" d="M286.089,136.006h-42.203c-2.266-16.852-8.925-32.328-18.785-45.237l29.875-29.875
				c4.528-4.528,4.529-11.895,0.001-16.425l-1.746-1.744c-2.192-2.192-5.108-3.4-8.21-3.4c-3.102,0-6.019,1.208-8.212,3.402
				L206.934,72.6c-12.911-9.857-28.385-16.516-45.237-18.782V11.614C161.696,5.21,156.487,0,150.085,0h-2.468
				c-6.402,0-11.611,5.21-11.611,11.614v42.204c-16.851,2.265-32.326,8.924-45.237,18.782L60.892,42.724
				c-2.194-2.192-5.11-3.4-8.211-3.4c-3.101,0-6.017,1.207-8.211,3.4l-1.745,1.746c-2.194,2.192-3.402,5.108-3.402,8.208
				c-0.001,3.103,1.207,6.02,3.4,8.214L72.6,90.767c-9.86,12.911-16.519,28.387-18.785,45.239H11.611
				C5.209,136.006,0,141.215,0,147.617v2.468c0,6.403,5.209,11.611,11.611,11.611h42.204c2.266,16.852,8.925,32.328,18.785,45.239
				l-29.875,29.876c-4.528,4.527-4.528,11.894,0,16.422l1.745,1.743c2.194,2.194,5.109,3.403,8.211,3.403
				c3.102,0,6.017-1.208,8.211-3.402l29.875-29.875c12.912,9.857,28.388,16.516,45.239,18.782v42.205
				c0,6.402,5.209,11.611,11.611,11.611h2.468c6.402,0,11.611-5.209,11.611-11.611v-42.205c16.852-2.267,32.328-8.925,45.239-18.783
				l29.875,29.875c2.194,2.194,5.11,3.402,8.211,3.402c3.101,0,6.019-1.208,8.211-3.4l1.746-1.746
				c4.528-4.527,4.527-11.895-0.001-16.422l-29.875-29.875c9.86-12.911,16.519-28.387,18.785-45.239h42.203
				c6.404,0,11.613-5.208,11.613-11.611v-2.468C297.702,141.215,292.493,136.006,286.089,136.006z M244.696,145.79h41.393
				c1.009,0,1.828,0.819,1.828,1.826v2.468c0,1.007-0.819,1.827-1.828,1.827h-41.393c0.032-1.017,0.053-2.036,0.053-3.061
				C244.749,147.827,244.727,146.807,244.696,145.79z M248.059,246.313l-1.746,1.744c-0.467,0.466-1.01,0.535-1.293,0.535
				c-0.283,0-0.826-0.07-1.293-0.535l-29.303-29.303c1.489-1.398,2.932-2.841,4.33-4.33l29.303,29.303
				C248.771,244.442,248.771,245.601,248.059,246.313z M151.911,286.09c0,1.008-0.819,1.826-1.827,1.826h-2.468
				c-1.007,0-1.826-0.819-1.826-1.826v-41.397c1.015,0.033,2.035,0.055,3.059,0.055c1.025,0,2.045-0.022,3.062-0.055V286.09z
				 M53.974,248.058c-0.467,0.467-1.01,0.536-1.293,0.536c-0.282,0-0.826-0.071-1.293-0.536l-1.744-1.744
				c-0.713-0.713-0.713-1.871,0-2.584l29.303-29.303c1.398,1.488,2.841,2.932,4.33,4.329L53.974,248.058z M49.644,51.388
				l1.744-1.745c0.467-0.465,1.01-0.535,1.293-0.535c0.283,0,0.826,0.07,1.292,0.535l29.304,29.303
				c-1.488,1.398-2.932,2.841-4.33,4.33L49.644,53.972c-0.467-0.466-0.535-1.009-0.535-1.292
				C49.109,52.399,49.178,51.855,49.644,51.388z M145.79,11.614c0-1.009,0.819-1.829,1.826-1.829h2.468
				c1.007,0,1.827,0.82,1.827,1.829v41.395c-1.017-0.031-2.037-0.053-3.062-0.053c-1.024,0-2.044,0.022-3.059,0.053V11.614z
				 M9.785,147.617c0-1.007,0.819-1.826,1.826-1.826h41.395c-0.031,1.016-0.053,2.037-0.053,3.06c0,1.025,0.022,2.044,0.053,3.061
				H11.611c-1.007,0-1.826-0.82-1.826-1.827V147.617z M148.849,234.963c-47.483,0-86.112-38.629-86.112-86.112
				c0-47.481,38.629-86.11,86.112-86.11c47.484,0,86.115,38.629,86.115,86.11C234.964,196.334,196.334,234.963,148.849,234.963z
				 M245.022,49.109c0.282,0,0.826,0.07,1.291,0.535l1.745,1.745c0.712,0.713,0.712,1.873,0,2.585l-29.303,29.303
				c-1.398-1.488-2.842-2.932-4.33-4.329l29.304-29.303C244.195,49.178,244.739,49.109,245.022,49.109z"/>
			<path style="fill:#B74B00;" d="M148.854,68.874L148.854,68.874c-0.001,0-0.001,0-0.001,0s-0.001,0-0.003,0
				c-44.097,0-79.973,35.878-79.973,79.977c0,44.099,35.876,79.977,79.973,79.977c44.099,0,79.977-35.878,79.977-79.977
				C228.827,104.753,192.951,68.876,148.854,68.874z M143.961,78.832v50.952c-1.794,0.46-3.485,1.17-5.044,2.084l-36.091-35.968
				C114.005,86.169,128.282,79.916,143.961,78.832z M131.962,138.752c-0.962,1.603-1.704,3.351-2.18,5.206H78.835
				c1.084-15.681,7.34-29.961,17.072-41.141L131.962,138.752z M129.782,153.743c0.467,1.822,1.193,3.541,2.131,5.121l-36.014,36.013
				c-9.729-11.178-15.981-25.457-17.065-41.134H129.782z M143.961,218.87c-15.682-1.084-29.963-7.34-41.143-17.073l36.012-36.012
				c1.582,0.939,3.305,1.667,5.131,2.135V218.87z M139.579,148.851c0-5.12,4.151-9.271,9.272-9.271c5.12,0,9.271,4.151,9.271,9.271
				c0,5.121-4.151,9.272-9.271,9.272C143.73,158.122,139.579,153.971,139.579,148.851z M194.877,95.901l-36.015,36.014
				c-1.578-0.936-3.295-1.661-5.116-2.129V78.832C169.423,79.917,183.699,86.171,194.877,95.901z M153.746,218.87v-50.952
				c1.876-0.482,3.645-1.234,5.262-2.213l36.054,35.932C183.857,211.459,169.51,217.778,153.746,218.87z M165.868,158.727
				c0.9-1.542,1.598-3.214,2.053-4.984h50.948c-1.08,15.593-7.271,29.801-16.909,40.953L165.868,158.727z M167.921,143.959
				c-0.47-1.825-1.197-3.547-2.136-5.129l36.011-36.011c9.733,11.178,15.988,25.459,17.073,41.139H167.921z"/>
			<g>
				<path style="fill:#FDBD1D;" d="M150.535,139.749c0.162,0.03,0.32,0.072,0.478,0.11
					C150.854,139.821,150.698,139.779,150.535,139.749z"/>
				<path style="fill:#FDBD1D;" d="M152.173,140.219c0.149,0.058,0.3,0.11,0.444,0.175
					C152.472,140.329,152.322,140.276,152.173,140.219z"/>
				<path style="fill:#FDBD1D;" d="M156.343,143.429c0.094,0.129,0.191,0.255,0.279,0.39
					C156.534,143.684,156.437,143.559,156.343,143.429z"/>
				<path style="fill:#FDBD1D;" d="M139.859,151.013c-0.038-0.159-0.08-0.316-0.11-0.477
					C139.779,150.698,139.821,150.854,139.859,151.013z"/>
				<path style="fill:#FDBD1D;" d="M155.598,142.526c-0.112-0.119-0.219-0.239-0.337-0.352
					C155.378,142.287,155.487,142.408,155.598,142.526z"/>
				<path style="fill:#FDBD1D;" d="M154.027,141.159c0.018,0.012,0.033,0.027,0.05,0.039
					C154.06,141.186,154.045,141.171,154.027,141.159z"/>
				<path style="fill:#FDBD1D;" d="M157.378,145.214c-1.117-0.477-2.345-0.742-3.635-0.742c-5.121,0-9.272,4.151-9.272,9.271
					c0,1.29,0.265,2.518,0.742,3.635c1.117,0.477,2.346,0.744,3.638,0.744c5.12,0,9.271-4.151,9.271-9.271
					C158.122,147.559,157.856,146.331,157.378,145.214z"/>
				<path style="fill:#FDBD1D;" d="M143.819,156.621c-0.134-0.087-0.26-0.184-0.389-0.278
					C143.56,156.438,143.685,156.534,143.819,156.621z"/>
				<path style="fill:#FDBD1D;" d="M141.195,154.073c-0.011-0.016-0.025-0.03-0.036-0.046
					C141.17,154.044,141.184,154.057,141.195,154.073z"/>
				<path style="fill:#FDBD1D;" d="M140.393,152.617c-0.064-0.144-0.117-0.294-0.174-0.442
					C140.277,152.323,140.328,152.472,140.393,152.617z"/>
				<path style="fill:#FDBD1D;" d="M142.176,155.262c0.112,0.117,0.231,0.223,0.348,0.333
					C142.407,155.486,142.287,155.379,142.176,155.262z"/>
			</g>
			<g>
				<path style="fill:#FDBD1D;" d="M248.427,51.944c0.013,0.029,0.029,0.058,0.04,0.086
					C248.455,52.001,248.44,51.974,248.427,51.944z"/>
				<path style="fill:#FDBD1D;" d="M246.312,49.772l1.744,1.68c0.004,0.004,0.006-0.024,0.009-0.02
					c-0.003-0.004-0.004-0.025-0.008-0.028l-1.744-1.624c-0.466-0.465-1.009-0.414-1.292-0.414h-0.001
					C245.304,49.366,245.846,49.307,246.312,49.772z"/>
				<path style="fill:#FDBD1D;" d="M248.429,53.414c0.012-0.027,0.026-0.053,0.036-0.081
					C248.456,53.36,248.441,53.388,248.429,53.414z"/>
				<path style="fill:#FDBD1D;" d="M248.058,53.972l-6.989,6.989c0.466-0.466,0.535-1.009,0.535-1.292
					c0-0.282-0.071-0.826-0.537-1.293l-1.744-1.744c-0.467-0.466-1.01-0.535-1.293-0.535c-0.28,0-0.817,0.071-1.28,0.526
					l-22.325,22.324c1.488,1.396,2.932,2.841,4.33,4.329l29.303-29.303c0.003-0.003,0.003-0.006,0.006-0.009
					C248.062,53.967,248.061,53.97,248.058,53.972z"/>
			</g>
			<path style="fill:#FDBD1D;" d="M248.058,243.728l-29.303-29.303c-1.398,1.489-2.841,2.932-4.33,4.33l29.303,29.303l-6.988-6.989
				c0.466,0.467,1.009,0.536,1.292,0.536c0.282,0,0.826-0.071,1.293-0.536l1.744-1.745c0.712-0.713,0.712-1.871,0-2.584l6.989,6.989
				c0.712,0.712,0.712,1.872,0,2.584l-1.744,1.745l1.746-1.745C248.771,245.601,248.771,244.442,248.058,243.728z"/>
		</g>
		<path style="fill:#FDBD1D;" d="M280.906,149.228v-3.393c0-1.385-0.797-0.469-1.805-0.469h-34.406c0.032,0,0.053,1.092,0.053,2.499
			c0,1.41-0.022,0.501-0.053,2.501h34.406C280.109,150.366,280.906,150.613,280.906,149.228z"/>
	</g>
</g>
<g>
</g>
<g>
</g>
<g>
</g>
<g>
</g>
<g>
</g>
<g>
</g>
<g>
</g>
<g>
</g>
<g>
</g>
<g>
</g>
<g>
</g>
<g>
</g>
<g>
</g>
<g>
</g>
<g>
</g>
</svg>
