<svg enable-background="new 0 0 1000 324" height="324" viewBox="0 0 1000 324" width="1000" xmlns="http://www.w3.org/2000/svg"><path d="m261.932 106.452v72.684l23.03-13.301v-72.685z" fill="#f29546"/><path d="m73.053 82.216 73.443-42.407 115.436 66.643 23.03-13.302-138.466-79.966-96.496 55.731z" fill="#e67e25"/><path d="m73.053 82.216-23.053-13.301v111.415l31.392 18.125v-26.603l-8.339-4.823z" fill="#b96828"/><path d="m188.465 233.672-63.173-36.479-.012 26.6 63.185 36.481z" fill="#b96828"/><path d="m304.328 81.986v84.813l-115.863 66.873v26.602l138.914-80.151v-111.438z" fill="#f29546"/><path d="m230.873 12.977-31.886 18.401 23.065 13.301 8.821-5.077 73.455 42.384 23.051-13.301z" fill="#e67e25"/><path d="m188.465 280.397-73.453-42.406v-131.539l-23.041-13.302v158.142l96.494 55.73z" fill="#b96828"/><path d="m115.012 106.452 63.128-36.434-23.029-13.301-63.14 36.433z" fill="#e67e25"/><path d="m261.932 229.858v8.133l-73.467 42.406v26.625l96.497-55.73v-34.758z" fill="#f29546"/><g fill="#222a35"><path d="m458.563 151.167c-5.169-1.964-9.798-4.136-13.91-6.501-4.1-2.355-7.604-5.158-10.487-8.432-2.883-3.262-5.135-7.178-6.731-11.749-1.585-4.561-2.389-10.028-2.389-16.402 0-7.766 1.332-14.6 3.985-20.526 2.665-5.927 6.421-10.9 11.292-14.944 4.859-4.02 10.706-7.063 17.562-9.119 6.834-2.067 14.507-3.09 23.03-3.09 7.753 0 14.989.688 21.766 2.067 6.754 1.355 13.874 3.331 21.341 5.915-.93 8.822-3.365 17.483-7.317 25.993-2.272-.896-4.593-1.814-6.961-2.722-2.354-.92-4.847-1.666-7.522-2.297-2.642-.598-5.663-1.092-8.993-1.47-3.354-.38-7.156-.564-11.418-.564-2.572 0-5.191.23-7.855.678-2.655.459-5.055 1.298-7.179 2.505-2.136 1.229-3.882 2.997-5.238 5.364-1.368 2.365-2.056 5.444-2.056 9.245 0 3.032.528 5.583 1.584 7.64 1.069 2.032 2.517 3.778 4.342 5.236 1.827 1.437 3.882 2.654 6.168 3.642 2.263.988 4.537 1.941 6.823 2.85l13.691 5.248c5.767 2.274 11.003 4.642 15.736 7.064 4.697 2.435 8.684 5.443 11.957 9.005 3.273 3.572 5.823 7.914 7.661 13.003 1.814 5.088 2.722 11.371 2.722 18.814 0 7.753-1.401 14.829-4.202 21.203-2.827 6.375-6.904 11.854-12.212 16.414-5.339 4.559-11.911 8.154-19.733 10.715-7.821 2.575-16.827 3.883-27.015 3.883-5.021 0-9.5-.172-13.462-.459-3.951-.31-7.718-.803-11.291-1.482-3.572-.678-7.098-1.551-10.602-2.618-3.491-1.068-7.132-2.379-10.946-3.884.471-4.41 1.286-9.016 2.526-13.794 1.206-4.8 2.642-9.603 4.319-14.474 6.385 2.575 12.393 4.538 18.009 5.825 5.629 1.285 11.637 1.906 18.023 1.906 9.579 0 17.103-1.77 22.569-5.352 5.468-3.561 8.213-8.983 8.213-16.29 0-3.65-.654-6.695-1.952-9.119-1.275-2.445-2.941-4.49-5.008-6.156-2.045-1.677-4.377-3.078-6.95-4.215-2.596-1.138-5.238-2.252-7.983-3.321z"/><path d="m737.792 211.77c-.46-3.102-1.206-6.112-2.273-8.995-1.689.287-3.631.62-5.835 1.012-2.194.391-4.424.585-6.709.585-2.895 0-5.386-.321-7.524-.919-2.135-.609-3.915-1.745-5.363-3.423-1.435-1.678-2.538-3.951-3.296-6.834-.77-2.895-1.148-6.696-1.148-11.417v-46.267h27.589c.448-2.436.76-4.651.932-6.627.126-1.975.218-4.021.218-6.146 0-1.987-.092-3.882-.218-5.697-.172-1.826-.483-3.883-.932-6.168h-27.589v-34.423h-5.237l-26.936 34.424s-48.094-.907-53.112 0l-27.799 102.835-24.627-102.835c-2.594-.597-5.467-.987-8.671-1.125-3.183-.174-6.316-.23-9.35-.23-2.274 0-4.743.034-7.421.104-2.664.068-5.732.482-9.233 1.252l34.675 117.895c1.195.286 2.585.46 4.112.46h4.778c2.103 0 4.228-.059 6.26-.128 2.08-.068 3.917-.194 5.582-.332l-3.87 14.128c-1.206 4.41-2.596 7.833-4.112 10.257-1.527 2.446-3.146 4.227-4.881 5.364-1.758 1.137-3.526 1.814-5.387 2.056-1.815.219-3.606.344-5.457.344-2.263 0-4.56-.194-6.846-.585-2.297-.368-4.101-.77-5.467-1.241-1.229 3.033-2.228 6.191-3.067 9.466-.839 3.273-1.264 6.707-1.264 10.371v1.7c0 .528.059 1.184.229 1.94 3.332.92 6.721 1.644 10.154 2.184 3.412.528 7.26.793 11.498.793 4.559 0 8.833-.438 12.785-1.274 3.95-.828 7.511-2.311 10.715-4.424 3.194-2.147 6.031-5.111 8.547-8.891 2.516-3.812 4.686-8.591 6.501-14.38l36.571-121.064h28.405v53.354c0 14.587 3.642 25.108 10.946 31.553 7.294 6.479 17.872 9.704 31.691 9.704 7.442 0 14.656-.826 21.651-2.504.16-1.066.274-2.182.354-3.295.069-1.159.106-2.538.106-4.238.004-2.427-.215-5.194-.675-8.319z"/><path d="m815.495 149.57c0-3.641-.632-6.627-1.837-8.878-1.218-2.286-2.883-4.09-4.997-5.388-2.137-1.264-4.754-2.16-7.879-2.619-3.102-.447-6.57-.678-10.384-.678-8.189 0-16.942 1.608-26.212 4.79-2.124-3.939-3.732-7.674-4.801-11.165-1.068-3.491-1.597-7.685-1.597-12.531 6.697-2.297 13.403-3.985 20.056-5.019 6.719-1.069 12.944-1.608 18.711-1.608 15.838 0 28.152 3.813 37.054 11.405 8.902 7.581 13.335 19.756 13.335 36.48v68.401c-5.306 1.666-11.762 3.273-19.376 4.802-7.604 1.504-16.196 2.273-25.775 2.273-7.731 0-14.828-.699-21.307-2.055-6.455-1.392-12.003-3.642-16.633-6.847-4.628-3.191-8.224-7.294-10.716-12.311-2.504-5.021-3.768-11.154-3.768-18.471 0-7.294 1.562-13.405 4.664-18.354 3.123-4.929 7.155-8.891 12.094-11.855 4.928-2.951 10.452-5.088 16.517-6.374 6.089-1.286 12.165-1.941 18.253-1.941 4.388 0 9.27.218 14.598.679zm0 23.479c-1.837-.287-3.824-.563-5.938-.782-2.137-.24-4.021-.345-5.675-.345-7.488 0-13.38 1.322-17.678 3.975-4.34 2.666-6.5 6.961-6.5 12.898 0 3.94.826 6.997 2.504 9.108 1.665 2.138 3.663 3.688 6.03 4.676 2.354.999 4.858 1.607 7.523 1.826 2.665.241 4.974.333 6.961.333 2.274 0 4.56-.172 6.834-.552 2.274-.391 4.239-.735 5.938-1.045v-30.092z"/><path d="m946.268 199.283c1.837 3.032 3.342 6.57 4.549 10.602 1.228 4.02 1.85 8.775 1.85 14.254-6.088 2.423-11.786 3.975-17.115 4.652-5.318.711-10.877 1.044-16.655 1.044-9.879 0-18.47-1.572-25.764-4.675-7.294-3.134-13.336-7.418-18.125-12.875-4.789-5.48-8.407-11.98-10.831-19.504-2.425-7.524-3.653-15.69-3.653-24.521 0-8.65 1.196-16.702 3.538-24.145 2.354-7.454 5.939-13.99 10.729-19.629 4.789-5.617 10.75-10.028 17.896-13.232 7.133-3.17 15.415-4.778 24.854-4.778 3.332 0 6.41.08 9.225.218 2.814.173 5.514.459 8.097.931 2.586.46 5.171 1.045 7.767 1.814 2.573.746 5.477 1.745 8.66 2.952 0 3.492-.471 7.42-1.379 11.751-.907 4.33-2.365 8.477-4.331 12.428-4.56-1.517-8.544-2.527-11.967-3.078-3.413-.518-7.329-.805-11.751-.805-9.42 0-16.518 3.102-21.307 9.247-4.801 6.168-7.189 14.932-7.189 26.327 0 12.324 2.596 21.294 7.752 26.899 5.168 5.651 12.164 8.442 20.963 8.442 2.296 0 4.363-.023 6.282-.092 1.907-.081 3.757-.276 5.594-.587 1.814-.32 3.688-.757 5.57-1.354 1.905-.609 4.144-1.391 6.741-2.286z"/></g></svg>